<svg width="132" height="132" viewBox="0 0 132 132" fill="none" xmlns="http://www.w3.org/2000/svg">
<path d="M27 67H27.0059C27.2736 88.3086 44.6279 105.5 66 105.5C83.0925 105.5 97.6153 94.5038 102.884 79.2002H66V79.1973C58.9872 79.1973 54 73.5128 54 66.5V53H130.719C131.558 57.2031 132 61.55 132 66C132 102.451 102.451 132 66 132C29.5492 132 0 102.451 0 66C0 44.139 10.6286 24.7606 27 12.75V67Z" fill="#E80000"/>
<path d="M66 0C87.8608 0 107.238 10.6288 119.249 27H54V1.08887C57.8913 0.374076 61.902 0 66 0Z" fill="#E80000"/>
</svg>
